<mxfile host="app.diagrams.net" agent="Mozilla/5.0 (Windows NT 10.0; Win64; x64) AppleWebKit/537.36 (KHTML, like Gecko) Chrome/130.0.0.0 Safari/537.36" version="24.8.3">
  <diagram name="Страница — 1" id="ga42qzcF0dYPDyCzxGdY">
    <mxGraphModel dx="880" dy="468" grid="1" gridSize="10" guides="1" tooltips="1" connect="1" arrows="1" fold="1" page="1" pageScale="1" pageWidth="827" pageHeight="1169" math="0" shadow="0">
      <root>
        <mxCell id="0" />
        <mxCell id="1" parent="0" />
        <mxCell id="_-qzljlEkIvBL5XPAo0N-1" value="«Component»&lt;br&gt;&lt;b&gt;Patient Monitoring System&lt;/b&gt;" style="html=1;dropTarget=0;whiteSpace=wrap;" parent="1" vertex="1">
          <mxGeometry x="340" y="180" width="180" height="90" as="geometry" />
        </mxCell>
        <mxCell id="_-qzljlEkIvBL5XPAo0N-2" value="" style="shape=module;jettyWidth=8;jettyHeight=4;" parent="_-qzljlEkIvBL5XPAo0N-1" vertex="1">
          <mxGeometry x="1" width="20" height="20" relative="1" as="geometry">
            <mxPoint x="-27" y="7" as="offset" />
          </mxGeometry>
        </mxCell>
        <mxCell id="_-qzljlEkIvBL5XPAo0N-3" value="«Component»&lt;br&gt;&lt;b&gt;Monitoring Devices&lt;/b&gt;" style="html=1;dropTarget=0;whiteSpace=wrap;" parent="1" vertex="1">
          <mxGeometry x="610" y="180" width="180" height="90" as="geometry" />
        </mxCell>
        <mxCell id="_-qzljlEkIvBL5XPAo0N-4" value="" style="shape=module;jettyWidth=8;jettyHeight=4;" parent="_-qzljlEkIvBL5XPAo0N-3" vertex="1">
          <mxGeometry x="1" width="20" height="20" relative="1" as="geometry">
            <mxPoint x="-27" y="7" as="offset" />
          </mxGeometry>
        </mxCell>
        <mxCell id="_-qzljlEkIvBL5XPAo0N-5" value="«Component»&lt;br&gt;&lt;b&gt;Data Storage System&lt;/b&gt;" style="html=1;dropTarget=0;whiteSpace=wrap;" parent="1" vertex="1">
          <mxGeometry x="340" y="350" width="180" height="90" as="geometry" />
        </mxCell>
        <mxCell id="_-qzljlEkIvBL5XPAo0N-6" value="" style="shape=module;jettyWidth=8;jettyHeight=4;" parent="_-qzljlEkIvBL5XPAo0N-5" vertex="1">
          <mxGeometry x="1" width="20" height="20" relative="1" as="geometry">
            <mxPoint x="-27" y="7" as="offset" />
          </mxGeometry>
        </mxCell>
        <mxCell id="_-qzljlEkIvBL5XPAo0N-7" value="«Component»&lt;br&gt;&lt;b&gt;Operator Interface&lt;/b&gt;" style="html=1;dropTarget=0;whiteSpace=wrap;" parent="1" vertex="1">
          <mxGeometry x="340" y="20" width="180" height="90" as="geometry" />
        </mxCell>
        <mxCell id="_-qzljlEkIvBL5XPAo0N-8" value="" style="shape=module;jettyWidth=8;jettyHeight=4;" parent="_-qzljlEkIvBL5XPAo0N-7" vertex="1">
          <mxGeometry x="1" width="20" height="20" relative="1" as="geometry">
            <mxPoint x="-27" y="7" as="offset" />
          </mxGeometry>
        </mxCell>
        <mxCell id="_-qzljlEkIvBL5XPAo0N-9" value="«Component»&lt;br&gt;&lt;b&gt;Notification System&lt;/b&gt;" style="html=1;dropTarget=0;whiteSpace=wrap;" parent="1" vertex="1">
          <mxGeometry x="50" y="350" width="180" height="90" as="geometry" />
        </mxCell>
        <mxCell id="_-qzljlEkIvBL5XPAo0N-10" value="" style="shape=module;jettyWidth=8;jettyHeight=4;" parent="_-qzljlEkIvBL5XPAo0N-9" vertex="1">
          <mxGeometry x="1" width="20" height="20" relative="1" as="geometry">
            <mxPoint x="-27" y="7" as="offset" />
          </mxGeometry>
        </mxCell>
        <mxCell id="_-qzljlEkIvBL5XPAo0N-11" value="«Component»&lt;br&gt;&lt;b&gt;Alert Management System&lt;/b&gt;" style="html=1;dropTarget=0;whiteSpace=wrap;" parent="1" vertex="1">
          <mxGeometry x="50" y="180" width="180" height="90" as="geometry" />
        </mxCell>
        <mxCell id="_-qzljlEkIvBL5XPAo0N-12" value="" style="shape=module;jettyWidth=8;jettyHeight=4;" parent="_-qzljlEkIvBL5XPAo0N-11" vertex="1">
          <mxGeometry x="1" width="20" height="20" relative="1" as="geometry">
            <mxPoint x="-27" y="7" as="offset" />
          </mxGeometry>
        </mxCell>
        <mxCell id="_-qzljlEkIvBL5XPAo0N-13" value="«Component»&lt;br&gt;&lt;b&gt;Reporting&amp;nbsp;System&lt;/b&gt;" style="html=1;dropTarget=0;whiteSpace=wrap;" parent="1" vertex="1">
          <mxGeometry x="620" y="350" width="180" height="90" as="geometry" />
        </mxCell>
        <mxCell id="_-qzljlEkIvBL5XPAo0N-14" value="" style="shape=module;jettyWidth=8;jettyHeight=4;" parent="_-qzljlEkIvBL5XPAo0N-13" vertex="1">
          <mxGeometry x="1" width="20" height="20" relative="1" as="geometry">
            <mxPoint x="-27" y="7" as="offset" />
          </mxGeometry>
        </mxCell>
        <mxCell id="_-qzljlEkIvBL5XPAo0N-16" value="" style="rounded=0;orthogonalLoop=1;jettySize=auto;html=1;endArrow=halfCircle;endFill=0;endSize=6;strokeWidth=1;sketch=0;exitX=0.5;exitY=0;exitDx=0;exitDy=0;" parent="1" source="_-qzljlEkIvBL5XPAo0N-5" edge="1">
          <mxGeometry relative="1" as="geometry">
            <mxPoint x="430" y="350" as="sourcePoint" />
            <mxPoint x="430" y="310" as="targetPoint" />
          </mxGeometry>
        </mxCell>
        <mxCell id="_-qzljlEkIvBL5XPAo0N-17" value="" style="rounded=0;orthogonalLoop=1;jettySize=auto;html=1;endArrow=oval;endFill=0;sketch=0;sourcePerimeterSpacing=0;targetPerimeterSpacing=0;endSize=10;exitX=0.5;exitY=1;exitDx=0;exitDy=0;" parent="1" source="_-qzljlEkIvBL5XPAo0N-1" edge="1">
          <mxGeometry relative="1" as="geometry">
            <mxPoint x="390" y="245" as="sourcePoint" />
            <mxPoint x="430" y="310" as="targetPoint" />
            <Array as="points" />
          </mxGeometry>
        </mxCell>
        <mxCell id="_-qzljlEkIvBL5XPAo0N-18" value="" style="ellipse;whiteSpace=wrap;html=1;align=center;aspect=fixed;fillColor=none;strokeColor=none;resizable=0;perimeter=centerPerimeter;rotatable=0;allowArrows=0;points=[];outlineConnect=1;" parent="1" vertex="1">
          <mxGeometry x="460" y="300" width="10" height="10" as="geometry" />
        </mxCell>
        <mxCell id="_-qzljlEkIvBL5XPAo0N-20" value="" style="rounded=0;orthogonalLoop=1;jettySize=auto;html=1;endArrow=halfCircle;endFill=0;endSize=6;strokeWidth=1;sketch=0;exitX=1;exitY=0.5;exitDx=0;exitDy=0;" parent="1" source="_-qzljlEkIvBL5XPAo0N-1" edge="1">
          <mxGeometry relative="1" as="geometry">
            <mxPoint x="530" y="225" as="sourcePoint" />
            <mxPoint x="570" y="225" as="targetPoint" />
          </mxGeometry>
        </mxCell>
        <mxCell id="_-qzljlEkIvBL5XPAo0N-21" value="" style="rounded=0;orthogonalLoop=1;jettySize=auto;html=1;endArrow=oval;endFill=0;sketch=0;sourcePerimeterSpacing=0;targetPerimeterSpacing=0;endSize=10;exitX=0;exitY=0.5;exitDx=0;exitDy=0;" parent="1" source="_-qzljlEkIvBL5XPAo0N-3" edge="1">
          <mxGeometry relative="1" as="geometry">
            <mxPoint x="390" y="245" as="sourcePoint" />
            <mxPoint x="570" y="225" as="targetPoint" />
          </mxGeometry>
        </mxCell>
        <mxCell id="_-qzljlEkIvBL5XPAo0N-22" value="" style="ellipse;whiteSpace=wrap;html=1;align=center;aspect=fixed;fillColor=none;strokeColor=none;resizable=0;perimeter=centerPerimeter;rotatable=0;allowArrows=0;points=[];outlineConnect=1;" parent="1" vertex="1">
          <mxGeometry x="405" y="240" width="10" height="10" as="geometry" />
        </mxCell>
        <mxCell id="_-qzljlEkIvBL5XPAo0N-24" value="" style="rounded=0;orthogonalLoop=1;jettySize=auto;html=1;endArrow=halfCircle;endFill=0;endSize=6;strokeWidth=1;sketch=0;exitX=0.5;exitY=1;exitDx=0;exitDy=0;" parent="1" source="_-qzljlEkIvBL5XPAo0N-7" edge="1">
          <mxGeometry relative="1" as="geometry">
            <mxPoint x="430" y="245" as="sourcePoint" />
            <mxPoint x="430" y="140" as="targetPoint" />
          </mxGeometry>
        </mxCell>
        <mxCell id="_-qzljlEkIvBL5XPAo0N-25" value="" style="rounded=0;orthogonalLoop=1;jettySize=auto;html=1;endArrow=oval;endFill=0;sketch=0;sourcePerimeterSpacing=0;targetPerimeterSpacing=0;endSize=10;exitX=0.5;exitY=0;exitDx=0;exitDy=0;" parent="1" source="_-qzljlEkIvBL5XPAo0N-1" edge="1">
          <mxGeometry relative="1" as="geometry">
            <mxPoint x="390" y="245" as="sourcePoint" />
            <mxPoint x="430" y="140" as="targetPoint" />
          </mxGeometry>
        </mxCell>
        <mxCell id="_-qzljlEkIvBL5XPAo0N-26" value="" style="ellipse;whiteSpace=wrap;html=1;align=center;aspect=fixed;fillColor=none;strokeColor=none;resizable=0;perimeter=centerPerimeter;rotatable=0;allowArrows=0;points=[];outlineConnect=1;" parent="1" vertex="1">
          <mxGeometry x="405" y="240" width="10" height="10" as="geometry" />
        </mxCell>
        <mxCell id="_-qzljlEkIvBL5XPAo0N-27" value="" style="rounded=0;orthogonalLoop=1;jettySize=auto;html=1;endArrow=halfCircle;endFill=0;endSize=6;strokeWidth=1;sketch=0;exitX=1;exitY=0.5;exitDx=0;exitDy=0;" parent="1" source="_-qzljlEkIvBL5XPAo0N-11" edge="1">
          <mxGeometry relative="1" as="geometry">
            <mxPoint x="430" y="245" as="sourcePoint" />
            <mxPoint x="280" y="225" as="targetPoint" />
          </mxGeometry>
        </mxCell>
        <mxCell id="_-qzljlEkIvBL5XPAo0N-28" value="" style="rounded=0;orthogonalLoop=1;jettySize=auto;html=1;endArrow=oval;endFill=0;sketch=0;sourcePerimeterSpacing=0;targetPerimeterSpacing=0;endSize=10;exitX=0;exitY=0.5;exitDx=0;exitDy=0;" parent="1" source="_-qzljlEkIvBL5XPAo0N-1" edge="1">
          <mxGeometry relative="1" as="geometry">
            <mxPoint x="390" y="245" as="sourcePoint" />
            <mxPoint x="280" y="225" as="targetPoint" />
          </mxGeometry>
        </mxCell>
        <mxCell id="_-qzljlEkIvBL5XPAo0N-29" value="" style="ellipse;whiteSpace=wrap;html=1;align=center;aspect=fixed;fillColor=none;strokeColor=none;resizable=0;perimeter=centerPerimeter;rotatable=0;allowArrows=0;points=[];outlineConnect=1;" parent="1" vertex="1">
          <mxGeometry x="405" y="240" width="10" height="10" as="geometry" />
        </mxCell>
        <mxCell id="_-qzljlEkIvBL5XPAo0N-30" value="" style="rounded=0;orthogonalLoop=1;jettySize=auto;html=1;endArrow=halfCircle;endFill=0;endSize=6;strokeWidth=1;sketch=0;exitX=0;exitY=0.5;exitDx=0;exitDy=0;" parent="1" source="_-qzljlEkIvBL5XPAo0N-13" edge="1">
          <mxGeometry relative="1" as="geometry">
            <mxPoint x="550" y="320" as="sourcePoint" />
            <mxPoint x="560" y="395" as="targetPoint" />
          </mxGeometry>
        </mxCell>
        <mxCell id="_-qzljlEkIvBL5XPAo0N-31" value="" style="rounded=0;orthogonalLoop=1;jettySize=auto;html=1;endArrow=oval;endFill=0;sketch=0;sourcePerimeterSpacing=0;targetPerimeterSpacing=0;endSize=10;exitX=1;exitY=0.5;exitDx=0;exitDy=0;" parent="1" source="_-qzljlEkIvBL5XPAo0N-5" edge="1">
          <mxGeometry relative="1" as="geometry">
            <mxPoint x="540" y="310" as="sourcePoint" />
            <mxPoint x="560" y="395" as="targetPoint" />
          </mxGeometry>
        </mxCell>
        <mxCell id="_-qzljlEkIvBL5XPAo0N-32" value="" style="ellipse;whiteSpace=wrap;html=1;align=center;aspect=fixed;fillColor=none;strokeColor=none;resizable=0;perimeter=centerPerimeter;rotatable=0;allowArrows=0;points=[];outlineConnect=1;" parent="1" vertex="1">
          <mxGeometry x="405" y="340" width="10" height="10" as="geometry" />
        </mxCell>
        <mxCell id="_-qzljlEkIvBL5XPAo0N-33" value="" style="rounded=0;orthogonalLoop=1;jettySize=auto;html=1;endArrow=halfCircle;endFill=0;endSize=6;strokeWidth=1;sketch=0;exitX=0.5;exitY=0;exitDx=0;exitDy=0;" parent="1" source="_-qzljlEkIvBL5XPAo0N-9" edge="1">
          <mxGeometry relative="1" as="geometry">
            <mxPoint x="430" y="245" as="sourcePoint" />
            <mxPoint x="140" y="310" as="targetPoint" />
          </mxGeometry>
        </mxCell>
        <mxCell id="_-qzljlEkIvBL5XPAo0N-34" value="" style="rounded=0;orthogonalLoop=1;jettySize=auto;html=1;endArrow=oval;endFill=0;sketch=0;sourcePerimeterSpacing=0;targetPerimeterSpacing=0;endSize=10;exitX=0.5;exitY=1;exitDx=0;exitDy=0;" parent="1" source="_-qzljlEkIvBL5XPAo0N-11" edge="1">
          <mxGeometry relative="1" as="geometry">
            <mxPoint x="390" y="245" as="sourcePoint" />
            <mxPoint x="140" y="310" as="targetPoint" />
          </mxGeometry>
        </mxCell>
        <mxCell id="_-qzljlEkIvBL5XPAo0N-35" value="" style="ellipse;whiteSpace=wrap;html=1;align=center;aspect=fixed;fillColor=none;strokeColor=none;resizable=0;perimeter=centerPerimeter;rotatable=0;allowArrows=0;points=[];outlineConnect=1;" parent="1" vertex="1">
          <mxGeometry x="405" y="240" width="10" height="10" as="geometry" />
        </mxCell>
        <mxCell id="lIl5ft34WkOeI8g9TdbY-7" value="Vitals data" style="text;html=1;align=center;verticalAlign=middle;whiteSpace=wrap;rounded=0;" vertex="1" parent="1">
          <mxGeometry x="530" y="360" width="60" height="30" as="geometry" />
        </mxCell>
        <mxCell id="lIl5ft34WkOeI8g9TdbY-8" value="Irregularities&lt;div&gt;information&lt;/div&gt;" style="text;html=1;align=center;verticalAlign=middle;whiteSpace=wrap;rounded=0;" vertex="1" parent="1">
          <mxGeometry x="250" y="185" width="60" height="30" as="geometry" />
        </mxCell>
        <mxCell id="lIl5ft34WkOeI8g9TdbY-9" value="Real-time vitals" style="text;html=1;align=center;verticalAlign=middle;whiteSpace=wrap;rounded=0;" vertex="1" parent="1">
          <mxGeometry x="450" y="130" width="60" height="30" as="geometry" />
        </mxCell>
        <mxCell id="lIl5ft34WkOeI8g9TdbY-10" value="Real-time vitals" style="text;html=1;align=center;verticalAlign=middle;whiteSpace=wrap;rounded=0;" vertex="1" parent="1">
          <mxGeometry x="450" y="300" width="60" height="30" as="geometry" />
        </mxCell>
        <mxCell id="lIl5ft34WkOeI8g9TdbY-12" value="Real-time vitals" style="text;html=1;align=center;verticalAlign=middle;whiteSpace=wrap;rounded=0;" vertex="1" parent="1">
          <mxGeometry x="540" y="185" width="60" height="30" as="geometry" />
        </mxCell>
        <mxCell id="lIl5ft34WkOeI8g9TdbY-13" value="Alert&amp;nbsp;&lt;div&gt;information&lt;/div&gt;" style="text;html=1;align=center;verticalAlign=middle;whiteSpace=wrap;rounded=0;" vertex="1" parent="1">
          <mxGeometry x="160" y="300" width="60" height="30" as="geometry" />
        </mxCell>
      </root>
    </mxGraphModel>
  </diagram>
</mxfile>
